<?xml version="1.0" encoding="UTF-8"?><svg id="Ebene_1" xmlns="http://www.w3.org/2000/svg" viewBox="0 0 572.49 572.47"><defs><style>.cls-1{fill:#8b914b;stroke:#8b914b;stroke-miterlimit:10;stroke-width:25px;}</style></defs><path class="cls-1" d="M249.7,559.95c-60.2,0-120.41-.04-180.61,.03-13,.01-24.79-3.46-35.09-11.44-9.55-7.39-16.36-16.81-19.24-28.61-1.31-5.36-2.14-10.98-2.15-16.48-.12-120.48-.07-240.97-.11-361.45,0-17.4,6.21-31.96,19.37-43.37,9.29-8.05,20.22-12.25,32.48-13.02,1.41-.09,2.83-.09,4.25-.09,72.2,0,144.39,0,216.59-.02,8.02,0,13.85,3.43,17.54,10.53,4.78,9.17-.47,21.95-10.37,24.84-2.66,.78-5.55,1.12-8.33,1.12-71.7,.06-143.39,.07-215.09,0-5.71,0-10.68,1.51-14.67,5.61-3.31,3.4-5.11,7.52-5.2,12.32-.01,.83-.02,1.67-.02,2.5,0,120.24,.02,240.47-.05,360.71,0,6.57,1.8,12.11,7.02,16.27,3.21,2.56,6.88,3.99,11.03,4.02,.67,0,1.33,.01,2,.01,120.49,0,240.99-.02,361.48,.04,7.12,0,13.03-2.27,16.78-8.35,1.67-2.71,2.26-6.14,3.08-9.31,.36-1.41,.08-2.98,.08-4.48,0-71.28,.02-142.55-.03-213.83,0-6.93,2.41-12.55,8.2-16.4,5.97-3.97,12.34-4.34,18.66-.89,6.08,3.31,9.49,8.59,9.63,15.54,.19,9.99,.06,19.98,.06,29.97,0,62.53-.03,125.06,.03,187.6,.01,12.9-3.38,24.62-11.24,34.92-7.39,9.69-16.94,16.26-28.7,19.61-5.58,1.59-11.24,2.13-17.01,2.13-60.12-.02-120.24-.01-180.36-.01Z"/><path class="cls-1" d="M496.58,49.03c-1.13,0-2.26,0-3.39,0-38.39,0-76.77,0-115.16-.01-7.81,0-13.54-3.62-17.04-10.52-5.67-11.18,2.71-25.36,15.24-25.94,.67-.03,1.33-.04,2-.04,54.29,0,108.58,.01,162.87-.02,6.06,0,11.01,2.23,14.82,6.9,2.77,3.4,4.09,7.33,4.08,11.76-.04,17.57-.01,35.14-.01,52.7,0,36.8,0,73.6,0,110.4,0,7.8-3.45,13.56-10.37,17.12-11.33,5.84-25.78-2.7-26.09-15.47-.19-7.99-.06-15.98-.06-23.98,0-30.89,0-61.78,0-92.67,0-1.12-.12-2.23-.22-3.97-1.23,1.12-2.02,1.79-2.76,2.52-59.67,59.66-119.33,119.33-179,178.99-26.04,26.04-52.14,52.02-78.09,78.16-9.09,9.16-22.73,7.16-28.91-2.3-4.73-7.23-3.85-16.5,2.45-22.87,9.88-9.99,19.85-19.89,29.79-29.83,53.62-53.62,107.23-107.25,160.85-160.87,22.4-22.4,44.81-44.79,67.22-67.19,.69-.69,1.33-1.44,2-2.17-.07-.24-.14-.48-.21-.72Z"/></svg>